<svg aria-hidden="true" style="width:0;height:0;position:absolute;overflow:hidden" xmlns="http://www.w3.org/2000/svg"><defs><symbol id="icon-search" viewBox="0 0 32 32"><path d="M12.125.069C9.894.3 7.669 1.175 5.75 2.588c-.713.519-2.019 1.813-2.544 2.512C1.556 7.281.675 9.756.581 12.469a12.39 12.39 0 0 0 .644 4.519 12.893 12.893 0 0 0 3.125 5.037c2.088 2.087 4.725 3.369 7.669 3.731.794.094 2.819.044 3.575-.094 1.756-.319 3.319-.919 4.738-1.806l.544-.35 3.837 3.988c2.106 2.188 3.919 4.056 4.025 4.144.675.563 1.837.406 2.35-.313.262-.363.337-.6.344-1.025.012-.675-.031-.731-4.087-4.938-2.025-2.1-3.75-3.9-3.825-3.994l-.144-.169.337-.425c2.262-2.906 3.144-6.725 2.406-10.463-.369-1.869-1.337-3.919-2.575-5.456A12.957 12.957 0 0 0 12.125.068zm2.563 3.393c4.056.544 7.269 3.512 8.125 7.512.175.794.238 2.388.125 3.144-.306 2.175-1.225 4.031-2.725 5.531-1.444 1.45-3.238 2.363-5.275 2.7-.681.113-2.181.113-2.912 0a9.538 9.538 0 0 1-6.494-4.162 8.494 8.494 0 0 1-1.094-2.244c-.319-.944-.444-1.65-.481-2.713-.206-5.331 4.094-9.806 9.45-9.85.344 0 .919.038 1.281.081z"/></symbol><symbol id="icon-menu" viewBox="0 0 32 32"><path d="M6.919 5.375c-.944.237-1.569 1.019-1.569 1.969 0 .55.206 1.031.619 1.431.406.394.862.556 1.469.525.537-.031.894-.188 1.269-.544.563-.525.756-1.412.481-2.144-.325-.875-1.394-1.456-2.269-1.237zM15.525 5.4a2.07 2.07 0 0 0-1.35 1.131c-.219.475-.206 1.194.031 1.669.188.387.519.719.931.938.225.119.363.144.862.144s.637-.025.863-.144c.413-.219.744-.55.931-.938.238-.475.25-1.194.031-1.669a2.077 2.077 0 0 0-1.438-1.15c-.394-.081-.45-.081-.863.019zM24.181 5.4c-.906.244-1.494 1-1.494 1.931 0 .513.156.931.494 1.306.387.431.794.625 1.381.662.375.019.538 0 .825-.113 1.031-.387 1.556-1.644 1.106-2.625-.3-.644-.7-.987-1.35-1.156-.419-.112-.575-.112-.962-.006zM6.781 14.081c-.412.137-.619.269-.888.563-.325.35-.425.544-.519.994-.175.875.313 1.8 1.156 2.188.475.219 1.194.206 1.669-.031a2.15 2.15 0 0 0 .938-.931c.119-.225.144-.363.144-.863 0-.662-.094-.919-.506-1.375-.456-.5-1.362-.75-1.994-.544zM15.531 14.056a2.116 2.116 0 0 0-1.344 1.1c-.213.431-.219 1.238-.012 1.656.213.444.469.712.9.944.363.194.438.212.925.206.45 0 .581-.025.85-.163.469-.25.669-.438.906-.875.194-.363.212-.438.212-.925s-.019-.563-.212-.925c-.356-.65-.9-1-1.625-1.044-.225-.012-.494-.006-.6.025zM24.012 14.113c-.413.15-.738.406-.994.787-.269.394-.35.725-.319 1.256.05.725.444 1.319 1.1 1.637.3.15.431.175.856.175.656-.006 1.044-.169 1.462-.631.712-.781.712-1.894 0-2.675-.531-.588-1.381-.806-2.106-.55zM6.606 22.813a1.926 1.926 0 0 0-1.056.981c-.169.35-.2.481-.2.856.006 1.775 2.138 2.675 3.381 1.431.412-.413.55-.769.55-1.425 0-.488-.025-.606-.169-.881-.225-.425-.706-.85-1.113-.981-.425-.137-1.013-.131-1.394.019zM15.4 22.75c-.313.1-.781.444-1.006.738-.963 1.275-.006 3.163 1.606 3.163.756 0 1.512-.488 1.819-1.163.219-.5.212-1.206-.025-1.688a2.131 2.131 0 0 0-.931-.931c-.3-.156-1.125-.225-1.463-.119zM23.938 22.8c-.4.15-1 .762-1.144 1.169a2.035 2.035 0 0 0 1.65 2.688c.563.081 1.331-.219 1.712-.669.706-.831.65-2.012-.125-2.762-.512-.5-1.4-.681-2.094-.425z"/></symbol><symbol id="icon-google-logo" viewBox="0 0 64 32"><path fill="#4885ed" style="fill:var(--color1,#4885ed)" d="M17.268 14.105h-6.677v1.981h4.736c-.235 2.773-2.546 3.964-4.728 3.964h-.023a5.205 5.205 0 0 1-5.205-5.205v-.074.004c0-2.999 2.322-5.309 5.234-5.309 2.246 0 3.57 1.432 3.57 1.432l1.387-1.437s-1.781-1.982-5.029-1.982c-4.136 0-7.335 3.491-7.335 7.261 0 3.694 3.01 7.297 7.44 7.297 3.897 0 6.75-2.67 6.75-6.618 0-.833-.121-1.314-.121-1.314z"/><path fill="#db3236" style="fill:var(--color2,#db3236)" d="M22.738 12.669c-2.74 0-4.704 2.142-4.704 4.64 0 2.535 1.904 4.717 4.736 4.717 2.563 0 4.663-1.959 4.663-4.663 0-3.093-2.443-4.695-4.695-4.695zm.027 1.838c1.347 0 2.624 1.09 2.624 2.845 0 1.717-1.271 2.838-2.63 2.838-1.493 0-2.667-1.196-2.667-2.852 0-1.621 1.163-2.831 2.677-2.831z"/><path fill="#fbbc05" style="fill:var(--color2,#fbbc05)" d="M32.968 12.669c-2.74 0-4.704 2.142-4.704 4.64 0 2.535 1.904 4.717 4.736 4.717 2.563 0 4.663-1.959 4.663-4.663 0-3.093-2.443-4.695-4.695-4.695zm.027 1.838c1.347 0 2.624 1.09 2.624 2.845 0 1.717-1.271 2.838-2.63 2.838-1.493 0-2.667-1.196-2.667-2.852 0-1.621 1.163-2.831 2.677-2.831z"/><path fill="#4885ed" style="fill:var(--color1,#4885ed)" d="M43.002 12.675c-2.515 0-4.492 2.203-4.492 4.675 0 2.816 2.292 4.684 4.448 4.684 1.333 0 2.043-.53 2.56-1.137v.923c0 1.614-.98 2.581-2.46 2.581-1.429 0-2.146-1.063-2.4-1.666l-1.798.747c.638 1.349 1.922 2.756 4.213 2.756 2.507 0 4.406-1.575 4.406-4.878v-8.403h-1.954v.793c-.603-.651-1.428-1.074-2.523-1.074zm.181 1.834c1.233 0 2.499 1.053 2.499 2.851 0 1.828-1.264 2.835-2.526 2.835-1.341 0-2.588-1.088-2.588-2.818 0-1.796 1.296-2.868 2.615-2.868z"/><path fill="#db3236" style="fill:var(--color2,#db3236)" d="M56.213 12.663c-2.372 0-4.364 1.888-4.364 4.672 0 2.947 2.22 4.695 4.587 4.695 1.98 0 3.2-1.083 3.92-2.053l-1.618-1.076c-.42.651-1.122 1.288-2.292 1.288-1.315 0-1.92-.72-2.295-1.419l6.274-2.603-.32-.763c-.606-1.493-2.02-2.741-3.891-2.741zm.082 1.8c.855 0 1.47.454 1.731.999l-4.19 1.751c-.181-1.356 1.104-2.75 2.453-2.75z"/><path fill="#3cba54" style="fill:var(--color3,#3cba54)" d="M48.853 21.753h2.061V7.963h-2.061z"/></symbol><symbol id="icon-microphone" viewBox="0 0 22 32"><path fill="#4285f4" style="fill:var(--color1,#4285f4)" d="M11.184 20.694a4.736 4.736 0 0 0 4.734-4.749l.015-11.084A4.747 4.747 0 0 0 11.184.112a4.748 4.748 0 0 0-4.749 4.749v11.084a4.75 4.75 0 0 0 4.749 4.749z"/><path fill="#34a853" style="fill:var(--color2,#34a853)" d="M9.601 26.906v4.982h3.166V26.96c-.515.073-1.037.069-1.573.069-.541 0-1.071-.048-1.593-.123z"/><path fill="#fbbc05" style="fill:var(--color3,#fbbc05)" d="M5.563 21.593c-1.414-1.427-2.291-3.178-2.291-5.536H.112c0 3.166 1.239 5.769 3.241 7.773l.023-.021-.023-.021 2.21-2.195z"/><path fill="#ea4335" style="fill:var(--color4,#ea4335)" d="M19.08 16.056c0 3.959-3.518 7.86-7.89 7.86-2.187 0-4.166-.916-5.599-2.351l-.027.027-2.21 2.197.023.019a11.036 11.036 0 0 0 6.225 3.099c.523.075 1.052.123 1.593.123.539 0 1.058.004 1.573-.069 5.369-.767 9.473-5.363 9.473-10.905h-3.16z"/></symbol><symbol id="icon-keyboard" viewBox="0 0 32 32"><path fill="#5f6368" d="M2.594 9.088c-.256.113-.519.431-.563.681-.019.113-.025 2.988-.019 6.4.019 6.15.019 6.2.15 6.369.069.094.206.231.3.3l.169.131h26.738l.169-.131c.094-.069.231-.206.3-.3.131-.169.131-.206.131-6.538s0-6.369-.131-6.537a1.704 1.704 0 0 0-.3-.3l-.169-.131-13.294-.012c-10.956-.012-13.325 0-13.481.069zm3.8 3c.644.269.8 1.106.3 1.606-.7.706-1.85.075-1.669-.912.112-.588.8-.938 1.369-.694zm4 0c.644.269.8 1.106.3 1.606-.406.406-.981.406-1.387 0-.775-.769.081-2.031 1.088-1.606zm4 0c.644.269.8 1.106.3 1.606-.406.406-.981.406-1.387 0-.775-.769.081-2.031 1.088-1.606zm4 0c.644.269.8 1.106.3 1.606-.7.706-1.85.075-1.669-.912.113-.588.8-.938 1.369-.694zm4 0c.644.269.8 1.106.3 1.606-.7.706-1.85.075-1.669-.912.113-.588.8-.938 1.369-.694zm4 0c.644.269.8 1.106.3 1.606-.7.706-1.85.075-1.669-.912.113-.588.8-.938 1.369-.694zm-18 3c.644.269.8 1.106.3 1.606-.406.406-.981.406-1.388 0-.775-.769.081-2.031 1.087-1.606zm4 0c.644.269.8 1.106.3 1.606-.406.406-.981.406-1.387 0-.775-.769.081-2.031 1.088-1.606zm4 0c.644.269.8 1.106.3 1.606-.406.406-.981.406-1.387 0-.775-.769.081-2.031 1.087-1.606zm4 0c.644.269.8 1.106.3 1.606-.406.406-.981.406-1.387 0-.775-.769.081-2.031 1.087-1.606zm4 0c.644.269.8 1.106.3 1.606-.406.406-.981.406-1.387 0-.775-.769.081-2.031 1.087-1.606zm-14 2.999c.644.269.8 1.106.3 1.606-.406.406-.981.406-1.387 0-.775-.769.081-2.031 1.088-1.606zm8.45.069c.15.144.156.194.156.844s-.006.7-.156.844l-.15.156h-5.387l-.15-.156c-.15-.144-.156-.194-.156-.844s.006-.7.156-.844l.15-.156h5.387l.15.156zm3.55-.069c.644.269.8 1.106.3 1.606-.406.406-.981.406-1.387 0-.775-.769.081-2.031 1.087-1.606z"/></symbol><symbol id="icon-camera" viewBox="0 0 32 32"><path fill="#34a853" style="fill:var(--color1,#34a853)" d="M26.678 24a2.667 2.667 0 1 1-5.334 0 2.667 2.667 0 0 1 5.334 0z"/><path fill="#4285f4" style="fill:var(--color2,#4285f4)" d="M20.012 17.333a4 4 0 1 1-8 0 4 4 0 0 1 8 0z"/><path fill="#ea4335" style="fill:var(--color3,#ea4335)" d="M4 22.533A5.468 5.468 0 0 0 9.467 28H16v-2.667l-6.683-.017c-1.467 0-2.65-1.365-2.65-2.983v-3H4v3.2z"/><path fill="#fbbc05" style="fill:var(--color4,#fbbc05)" d="M28 12.133a5.468 5.468 0 0 0-5.467-5.467h-3.2l3.333 2.667c1.467 0 2.667 1.382 2.667 3v5H28v-5.2z"/><path fill="#4285f4" style="fill:var(--color2,#4285f4)" d="M18.667 4h-5.333l-2 2.667H9.467A5.468 5.468 0 0 0 4 12.134v3.2h2.667v-3c0-1.618 1.2-3 2.667-3h13.333l-4-5.333z"/></symbol><symbol id="icon-oddity-logo" viewBox="0 0 79 32"><path fill="#145ffd" style="fill:var(--color1,#145ffd)" d="M47.733 4.891h1.261l-.46 3.485 3.432-5.092h-1.168l.503-3.283z"/><path style="fill:var(--color2,#000)" d="M41.51 10.489h-8.447V24.2c0 2.086-3.408 2.486-3.408 4.394v3.407h8.444l2.116-2.119v-6.63c0-1.893 3.408-2.086 3.408-3.975v-6.671zm-4.675 16.17v2.059h-3.788v-1.886c0-2.634 3.38-2.255 3.38-4.527s.029-8.77.029-8.77h3.082l.706.706v5.982c0 1.19-.092 1.704-1.417 2.65-1.453 1.038-1.989.969-1.989 3.786zM61.842 13.537v18.462h-3.345V13.537H54.87v-3.065h10.6v3.065zM51.345 13.56v18.438H48v-21.52h3.344v3.082zM25.98 10.489h-8.443V24.2c0 2.086-3.408 2.486-3.408 4.394v3.407h8.444l2.117-2.119v-6.63c0-1.893 3.408-2.086 3.408-3.975v-6.671zm-4.674 16.17v2.059h-3.788v-1.886c0-2.634 3.38-2.255 3.38-4.527s.029-8.77.029-8.77h3.082l.706.706v5.982c0 1.19-.092 1.704-1.417 2.65-1.453 1.038-1.989.969-1.989 3.786zM75.99 10.489l-2.56 7.748-2.56-7.748h-3.412l4.3 11.777v9.732h3.345v-9.732l4.299-11.777zM0 29.868V12.583l2.014-2.094h8.481l2.117 2.106v6.371c0 1.531-.772 1.689-1.784 2.347-.847.551-1.623.841-1.623 1.942v6.627l-2.117 2.117H2.016zm3.386-1.17h2.347v-2.501c0-.805.115-1.933 1.781-3.164 1.374-1.018 1.713-1.395 1.713-3.086v-6.485H3.386z"/></symbol></defs></svg>