<svg aria-hidden="true" style="position: absolute; width: 0; height: 0; overflow: hidden;" version="1.1" xmlns="http://www.w3.org/2000/svg" xmlns:xlink="http://www.w3.org/1999/xlink">
<defs>
<symbol id="icon-search" viewBox="0 0 32 32">
<path d="M12.125 0.069c-2.231 0.231-4.456 1.106-6.375 2.519-0.713 0.519-2.019 1.813-2.544 2.512-1.65 2.181-2.531 4.656-2.625 7.369-0.056 1.619 0.144 3.006 0.644 4.519 0.625 1.881 1.7 3.613 3.125 5.037 2.088 2.087 4.725 3.369 7.669 3.731 0.794 0.094 2.819 0.044 3.575-0.094 1.756-0.319 3.319-0.919 4.738-1.806l0.544-0.35 3.837 3.988c2.106 2.188 3.919 4.056 4.025 4.144 0.675 0.563 1.837 0.406 2.35-0.313 0.262-0.363 0.337-0.6 0.344-1.025 0.012-0.675-0.031-0.731-4.087-4.938-2.025-2.1-3.75-3.9-3.825-3.994l-0.144-0.169 0.337-0.425c2.262-2.906 3.144-6.725 2.406-10.463-0.369-1.869-1.337-3.919-2.575-5.456-2.762-3.438-7.056-5.231-11.419-4.787zM14.688 3.462c4.056 0.544 7.269 3.512 8.125 7.512 0.175 0.794 0.238 2.388 0.125 3.144-0.306 2.175-1.225 4.031-2.725 5.531-1.444 1.45-3.238 2.363-5.275 2.7-0.681 0.113-2.181 0.113-2.912 0-2.637-0.4-5.025-1.931-6.494-4.162-0.525-0.794-0.806-1.375-1.094-2.244-0.319-0.944-0.444-1.65-0.481-2.713-0.206-5.331 4.094-9.806 9.45-9.85 0.344 0 0.919 0.038 1.281 0.081z"></path>
</symbol>
<symbol id="icon-menu" viewBox="0 0 32 32">
<path d="M6.919 5.375c-0.944 0.237-1.569 1.019-1.569 1.969 0 0.55 0.206 1.031 0.619 1.431 0.406 0.394 0.862 0.556 1.469 0.525 0.537-0.031 0.894-0.188 1.269-0.544 0.563-0.525 0.756-1.412 0.481-2.144-0.325-0.875-1.394-1.456-2.269-1.237z"></path>
<path d="M15.525 5.4c-0.581 0.144-1.094 0.575-1.35 1.131-0.219 0.475-0.206 1.194 0.031 1.669 0.188 0.387 0.519 0.719 0.931 0.938 0.225 0.119 0.363 0.144 0.862 0.144s0.637-0.025 0.863-0.144c0.413-0.219 0.744-0.55 0.931-0.938 0.238-0.475 0.25-1.194 0.031-1.669-0.269-0.581-0.813-1.019-1.438-1.15-0.394-0.081-0.45-0.081-0.863 0.019z"></path>
<path d="M24.181 5.4c-0.906 0.244-1.494 1-1.494 1.931 0 0.513 0.156 0.931 0.494 1.306 0.387 0.431 0.794 0.625 1.381 0.662 0.375 0.019 0.538 0 0.825-0.113 1.031-0.387 1.556-1.644 1.106-2.625-0.3-0.644-0.7-0.987-1.35-1.156-0.419-0.112-0.575-0.112-0.962-0.006z"></path>
<path d="M6.781 14.081c-0.412 0.137-0.619 0.269-0.888 0.563-0.325 0.35-0.425 0.544-0.519 0.994-0.175 0.875 0.313 1.8 1.156 2.188 0.475 0.219 1.194 0.206 1.669-0.031 0.387-0.188 0.719-0.519 0.938-0.931 0.119-0.225 0.144-0.363 0.144-0.863 0-0.662-0.094-0.919-0.506-1.375-0.456-0.5-1.362-0.75-1.994-0.544z"></path>
<path d="M15.531 14.056c-0.575 0.15-1.081 0.563-1.344 1.1-0.213 0.431-0.219 1.238-0.012 1.656 0.213 0.444 0.469 0.712 0.9 0.944 0.363 0.194 0.438 0.212 0.925 0.206 0.45 0 0.581-0.025 0.85-0.163 0.469-0.25 0.669-0.438 0.906-0.875 0.194-0.363 0.212-0.438 0.212-0.925s-0.019-0.563-0.212-0.925c-0.356-0.65-0.9-1-1.625-1.044-0.225-0.012-0.494-0.006-0.6 0.025z"></path>
<path d="M24.012 14.113c-0.413 0.15-0.738 0.406-0.994 0.787-0.269 0.394-0.35 0.725-0.319 1.256 0.050 0.725 0.444 1.319 1.1 1.637 0.3 0.15 0.431 0.175 0.856 0.175 0.656-0.006 1.044-0.169 1.462-0.631 0.712-0.781 0.712-1.894 0-2.675-0.531-0.588-1.381-0.806-2.106-0.55z"></path>
<path d="M6.606 22.813c-0.469 0.181-0.825 0.512-1.056 0.981-0.169 0.35-0.2 0.481-0.2 0.856 0.006 1.775 2.138 2.675 3.381 1.431 0.412-0.413 0.55-0.769 0.55-1.425 0-0.488-0.025-0.606-0.169-0.881-0.225-0.425-0.706-0.85-1.113-0.981-0.425-0.137-1.013-0.131-1.394 0.019z"></path>
<path d="M15.4 22.75c-0.313 0.1-0.781 0.444-1.006 0.738-0.963 1.275-0.006 3.163 1.606 3.163 0.756 0 1.512-0.488 1.819-1.163 0.219-0.5 0.212-1.206-0.025-1.688-0.194-0.387-0.525-0.725-0.931-0.931-0.3-0.156-1.125-0.225-1.463-0.119z"></path>
<path d="M23.938 22.8c-0.4 0.15-1 0.762-1.144 1.169-0.425 1.219 0.369 2.506 1.65 2.688 0.563 0.081 1.331-0.219 1.712-0.669 0.706-0.831 0.65-2.012-0.125-2.762-0.512-0.5-1.4-0.681-2.094-0.425z"></path>
</symbol>
<symbol id="icon-google-logo" viewBox="0 0 64 32">
<path fill="#4885ed" style="fill: var(--color1, #4885ed)" d="M17.268 14.105h-6.677v1.981h4.736c-0.235 2.773-2.546 3.964-4.728 3.964-0.007 0-0.015 0-0.023 0-2.875 0-5.205-2.331-5.205-5.205 0-0.025 0-0.049 0-0.074l-0 0.004c0-2.999 2.322-5.309 5.234-5.309 2.246 0 3.57 1.432 3.57 1.432l1.387-1.437s-1.781-1.982-5.029-1.982c-4.136 0-7.335 3.491-7.335 7.261 0 3.694 3.010 7.297 7.44 7.297 3.897 0 6.75-2.67 6.75-6.618 0-0.833-0.121-1.314-0.121-1.314z"></path>
<path fill="#db3236" style="fill: var(--color2, #db3236)" d="M22.738 12.669c-2.74 0-4.704 2.142-4.704 4.64 0 2.535 1.904 4.717 4.736 4.717 2.563 0 4.663-1.959 4.663-4.663 0-3.093-2.443-4.695-4.695-4.695zM22.765 14.507c1.347 0 2.624 1.090 2.624 2.845 0 1.717-1.271 2.838-2.63 2.838-1.493 0-2.667-1.196-2.667-2.852 0-1.621 1.163-2.831 2.677-2.831z"></path>
<path fill="#fbbc05" style="fill: var(--color2, #fbbc05)" d="M32.968 12.669c-2.74 0-4.704 2.142-4.704 4.64 0 2.535 1.904 4.717 4.736 4.717 2.563 0 4.663-1.959 4.663-4.663 0-3.093-2.443-4.695-4.695-4.695zM32.995 14.507c1.347 0 2.624 1.090 2.624 2.845 0 1.717-1.271 2.838-2.63 2.838-1.493 0-2.667-1.196-2.667-2.852 0-1.621 1.163-2.831 2.677-2.831z"></path>
<path fill="#4885ed" style="fill: var(--color1, #4885ed)" d="M43.002 12.675c-2.515 0-4.492 2.203-4.492 4.675 0 2.816 2.292 4.684 4.448 4.684 1.333 0 2.043-0.53 2.56-1.137v0.923c0 1.614-0.98 2.581-2.46 2.581-1.429 0-2.146-1.063-2.4-1.666l-1.798 0.747c0.638 1.349 1.922 2.756 4.213 2.756 2.507 0 4.406-1.575 4.406-4.878v-8.403h-1.954v0.793c-0.603-0.651-1.428-1.074-2.523-1.074zM43.183 14.509c1.233 0 2.499 1.053 2.499 2.851 0 1.828-1.264 2.835-2.526 2.835-1.341 0-2.588-1.088-2.588-2.818 0-1.796 1.296-2.868 2.615-2.868z"></path>
<path fill="#db3236" style="fill: var(--color2, #db3236)" d="M56.213 12.663c-2.372 0-4.364 1.888-4.364 4.672 0 2.947 2.22 4.695 4.587 4.695 1.98 0 3.2-1.083 3.92-2.053l-1.618-1.076c-0.42 0.651-1.122 1.288-2.292 1.288-1.315 0-1.92-0.72-2.295-1.419l6.274-2.603-0.32-0.763c-0.606-1.493-2.020-2.741-3.891-2.741zM56.295 14.463c0.855 0 1.47 0.454 1.731 0.999l-4.19 1.751c-0.181-1.356 1.104-2.75 2.453-2.75z"></path>
<path fill="#3cba54" style="fill: var(--color3, #3cba54)" d="M48.853 21.753h2.061v-13.79h-2.061z"></path>
</symbol>
<symbol id="icon-microphone" viewBox="0 0 22 32">
<path fill="#4285f4" style="fill: var(--color1, #4285f4)" d="M11.184 20.694c2.624 0 4.734-2.127 4.734-4.749l0.015-11.084c0-2.626-2.126-4.749-4.749-4.749-2.622 0-4.749 2.124-4.749 4.749v11.084c0 2.622 2.127 4.749 4.749 4.749z"></path>
<path fill="#34a853" style="fill: var(--color2, #34a853)" d="M9.601 26.906v0 4.982h3.166v-4.928c-0.515 0.073-1.037 0.069-1.573 0.069-0.541 0-1.071-0.048-1.593-0.123z"></path>
<path fill="#fbbc05" style="fill: var(--color3, #fbbc05)" d="M5.563 21.593c-1.414-1.427-2.291-3.178-2.291-5.536h-3.16c0 3.166 1.239 5.769 3.241 7.773l0.023-0.021c-0.008-0.008-0.015-0.013-0.023-0.021l2.21-2.195z"></path>
<path fill="#ea4335" style="fill: var(--color4, #ea4335)" d="M19.080 16.056c0 3.959-3.518 7.86-7.89 7.86-2.187 0-4.166-0.916-5.599-2.351l-0.027 0.027-2.21 2.197c0.008 0.006 0.015 0.013 0.023 0.019 1.648 1.643 3.812 2.749 6.225 3.099 0.523 0.075 1.052 0.123 1.593 0.123 0.539 0 1.058 0.004 1.573-0.069 5.369-0.767 9.473-5.363 9.473-10.905h-3.16z"></path>
</symbol>
<symbol id="icon-keyboard" viewBox="0 0 32 32" >
<path fill="#5f6368" d="M2.594 9.088c-0.256 0.113-0.519 0.431-0.563 0.681-0.019 0.113-0.025 2.988-0.019 6.4 0.019 6.15 0.019 6.2 0.15 6.369 0.069 0.094 0.206 0.231 0.3 0.3l0.169 0.131h26.738l0.169-0.131c0.094-0.069 0.231-0.206 0.3-0.3 0.131-0.169 0.131-0.206 0.131-6.538s0-6.369-0.131-6.537c-0.069-0.094-0.206-0.231-0.3-0.3l-0.169-0.131-13.294-0.012c-10.956-0.012-13.325 0-13.481 0.069zM6.394 12.088c0.644 0.269 0.8 1.106 0.3 1.606-0.7 0.706-1.85 0.075-1.669-0.912 0.112-0.588 0.8-0.938 1.369-0.694zM10.394 12.088c0.644 0.269 0.8 1.106 0.3 1.606-0.406 0.406-0.981 0.406-1.387 0-0.775-0.769 0.081-2.031 1.088-1.606zM14.394 12.088c0.644 0.269 0.8 1.106 0.3 1.606-0.406 0.406-0.981 0.406-1.387 0-0.775-0.769 0.081-2.031 1.088-1.606zM18.394 12.088c0.644 0.269 0.8 1.106 0.3 1.606-0.7 0.706-1.85 0.075-1.669-0.912 0.113-0.588 0.8-0.938 1.369-0.694zM22.394 12.088c0.644 0.269 0.8 1.106 0.3 1.606-0.7 0.706-1.85 0.075-1.669-0.912 0.113-0.588 0.8-0.938 1.369-0.694zM26.394 12.088c0.644 0.269 0.8 1.106 0.3 1.606-0.7 0.706-1.85 0.075-1.669-0.912 0.113-0.588 0.8-0.938 1.369-0.694zM8.394 15.088c0.644 0.269 0.8 1.106 0.3 1.606-0.406 0.406-0.981 0.406-1.388 0-0.775-0.769 0.081-2.031 1.087-1.606zM12.394 15.088c0.644 0.269 0.8 1.106 0.3 1.606-0.406 0.406-0.981 0.406-1.387 0-0.775-0.769 0.081-2.031 1.088-1.606zM16.394 15.088c0.644 0.269 0.8 1.106 0.3 1.606-0.406 0.406-0.981 0.406-1.387 0-0.775-0.769 0.081-2.031 1.087-1.606zM20.394 15.088c0.644 0.269 0.8 1.106 0.3 1.606-0.406 0.406-0.981 0.406-1.387 0-0.775-0.769 0.081-2.031 1.087-1.606zM24.394 15.088c0.644 0.269 0.8 1.106 0.3 1.606-0.406 0.406-0.981 0.406-1.387 0-0.775-0.769 0.081-2.031 1.087-1.606zM10.394 18.087c0.644 0.269 0.8 1.106 0.3 1.606-0.406 0.406-0.981 0.406-1.387 0-0.775-0.769 0.081-2.031 1.088-1.606zM18.844 18.156c0.15 0.144 0.156 0.194 0.156 0.844s-0.006 0.7-0.156 0.844l-0.15 0.156h-5.387l-0.15-0.156c-0.15-0.144-0.156-0.194-0.156-0.844s0.006-0.7 0.156-0.844l0.15-0.156h5.387l0.15 0.156zM22.394 18.087c0.644 0.269 0.8 1.106 0.3 1.606-0.406 0.406-0.981 0.406-1.387 0-0.775-0.769 0.081-2.031 1.087-1.606z"></path>
</symbol>
<symbol id="icon-camera" viewBox="0 0 32 32">
<path fill="#34a853" style="fill: var(--color1, #34a853)" d="M26.678 24c0 1.473-1.194 2.667-2.667 2.667s-2.667-1.194-2.667-2.667c0-1.473 1.194-2.667 2.667-2.667s2.667 1.194 2.667 2.667z"></path>
<path fill="#4285f4" style="fill: var(--color2, #4285f4)" d="M20.012 17.333c0 2.209-1.791 4-4 4s-4-1.791-4-4c0-2.209 1.791-4 4-4s4 1.791 4 4z"></path>
<path fill="#ea4335" style="fill: var(--color3, #ea4335)" d="M4 22.533c0 3.018 2.448 5.467 5.467 5.467h6.533v-2.667l-6.683-0.017c-1.467 0-2.65-1.365-2.65-2.983v-3h-2.667v3.2z"></path>
<path fill="#fbbc05" style="fill: var(--color4, #fbbc05)" d="M28 12.133c0-3.018-2.448-5.467-5.467-5.467h-3.2l3.333 2.667c1.467 0 2.667 1.382 2.667 3v5h2.667v-5.2z"></path>
<path fill="#4285f4" style="fill: var(--color2, #4285f4)" d="M18.667 4h-5.333l-2 2.667h-1.867c-3.018 0-5.467 2.448-5.467 5.467v3.2h2.667v-3c0-1.618 1.2-3 2.667-3h13.333l-4-5.333z"></path>
</symbol>
<symbol id="icon-oddity-logo" viewBox="0 0 79 32">
<path fill="#145ffd" style="fill: var(--color1, #145ffd)" d="M47.733 4.891h1.261l-0.46 3.485 3.432-5.092h-1.168l0.503-3.283z"></path>
<path fill="#000000" style="fill: var(--color2, #000000)" d="M41.51 10.489h-8.447v13.711c0 2.086-3.408 2.486-3.408 4.394v3.407h8.444l2.116-2.119v-6.63c0-1.893 3.408-2.086 3.408-3.975v-6.671zM36.835 26.659v2.059h-3.788v-1.886c0-2.634 3.38-2.255 3.38-4.527s0.029-8.77 0.029-8.77h3.082l0.706 0.706v5.982c0 1.19-0.092 1.704-1.417 2.65-1.453 1.038-1.989 0.969-1.989 3.786z"></path>
<path fill="#000000" style="fill: var(--color2, #000000)" d="M61.842 13.537v18.462h-3.345v-18.462h-3.627v-3.065h10.6v3.065z"></path>
<path fill="#000000" style="fill: var(--color2, #000000)" d="M51.345 13.56v18.438h-3.345v-21.52h3.344v3.082z"></path>
<path fill="#000000" style="fill: var(--color2, #000000)" d="M25.98 10.489h-8.443v13.711c0 2.086-3.408 2.486-3.408 4.394v3.407h8.444l2.117-2.119v-6.63c0-1.893 3.408-2.086 3.408-3.975v-6.671zM21.306 26.659v2.059h-3.788v-1.886c0-2.634 3.38-2.255 3.38-4.527s0.029-8.77 0.029-8.77h3.082l0.706 0.706v5.982c0 1.19-0.092 1.704-1.417 2.65-1.453 1.038-1.989 0.969-1.989 3.786z"></path>
<path fill="#000000" style="fill: var(--color2, #000000)" d="M75.99 10.489l-2.56 7.748-2.56-7.748h-3.412l4.3 11.777v9.732h3.345v-9.732l4.299-11.777z"></path>
<path fill="#000000" style="fill: var(--color2, #000000)" d="M0 29.868v-17.285l2.014-2.094h8.481l2.117 2.106v6.371c0 1.531-0.772 1.689-1.784 2.347-0.847 0.551-1.623 0.841-1.623 1.942v6.627l-2.117 2.117h-5.072zM3.386 28.698h2.347v-2.501c0-0.805 0.115-1.933 1.781-3.164 1.374-1.018 1.713-1.395 1.713-3.086v-6.485h-5.841z"></path>
</symbol>
</defs>
</svg>
